<svg width="16" height="16" viewBox="0 0 16 16" fill="none" xmlns="http://www.w3.org/2000/svg">
<path d="M9.75779 7C10.6487 7 11.0949 5.92286 10.4649 5.29289L7.515 2.343C7.12453 1.95253 7.12453 1.31947 7.515 0.929C7.90547 0.538535 8.53854 0.538535 8.929 0.929L15.2929 7.29289C15.6834 7.68342 15.6834 8.31658 15.2929 8.70711L8.929 15.071C8.53853 15.4615 7.90547 15.4615 7.515 15.071C7.12453 14.6805 7.12453 14.0475 7.515 13.657L10.4649 10.7071C11.0949 10.0771 10.6487 9 9.75779 9H1C0.447715 9 0 8.55229 0 8C0 7.44772 0.447715 7 1 7H9.75779Z" fill="#453332"/>
</svg>
