<svg width="48" height="48" viewBox="0 0 48 48" fill="none" xmlns="http://www.w3.org/2000/svg">
<rect x="0.5" y="0.5" width="47" height="47" rx="23.5" fill="white"/>
<path d="M16 18.414L12.757 15.172L14.172 13.757L17.414 17H32.656C32.8118 17 32.9655 17.0364 33.1048 17.1064C33.2441 17.1763 33.3651 17.2779 33.4582 17.4029C33.5513 17.5279 33.6138 17.673 33.6409 17.8265C33.6679 17.98 33.6587 18.1377 33.614 18.287L31.214 26.287C31.1522 26.4931 31.0257 26.6738 30.8531 26.8022C30.6805 26.9307 30.4711 27 30.256 27H18V29H29V31H17C16.7347 31 16.4804 30.8947 16.2929 30.7071C16.1053 30.5196 16 30.2652 16 30V18.414ZM17.5 35C17.1021 35 16.7206 34.842 16.4393 34.5607C16.158 34.2794 16 33.8978 16 33.5C16 33.1022 16.158 32.7207 16.4393 32.4394C16.7206 32.1581 17.1021 32 17.5 32C17.8978 32 18.2793 32.1581 18.5606 32.4394C18.8419 32.7207 19 33.1022 19 33.5C19 33.8978 18.8419 34.2794 18.5606 34.5607C18.2793 34.842 17.8978 35 17.5 35ZM29.5 35C29.1021 35 28.7206 34.842 28.4393 34.5607C28.158 34.2794 28 33.8978 28 33.5C28 33.1022 28.158 32.7207 28.4393 32.4394C28.7206 32.1581 29.1021 32 29.5 32C29.8978 32 30.2793 32.1581 30.5606 32.4394C30.8419 32.7207 31 33.1022 31 33.5C31 33.8978 30.8419 34.2794 30.5606 34.5607C30.2793 34.842 29.8978 35 29.5 35Z" fill="#453332"/>
<rect x="0.5" y="0.5" width="47" height="47" rx="23.5" stroke="#EBEBEB"/>
</svg>
