<svg width="40" height="40" viewBox="0 0 40 40" fill="none" xmlns="http://www.w3.org/2000/svg">
<rect width="40" height="40" rx="8" fill="#E0EEFF"/>
<path d="M11 21H17V19H11V9.846C11 9.75911 11.0227 9.67373 11.0657 9.59827C11.1088 9.52281 11.1708 9.45987 11.2456 9.41566C11.3204 9.37145 11.4054 9.34749 11.4923 9.34615C11.5791 9.3448 11.6649 9.36612 11.741 9.408L30.203 19.562C30.2814 19.6052 30.3468 19.6686 30.3923 19.7456C30.4378 19.8227 30.4618 19.9105 30.4618 20C30.4618 20.0895 30.4378 20.1773 30.3923 20.2544C30.3468 20.3314 30.2814 20.3948 30.203 20.438L11.741 30.592C11.6649 30.6339 11.5791 30.6552 11.4923 30.6539C11.4054 30.6525 11.3204 30.6286 11.2456 30.5843C11.1708 30.5401 11.1088 30.4772 11.0657 30.4017C11.0227 30.3263 11 30.2409 11 30.154V21Z" fill="#147EFF"/>
</svg>
