<svg width="56" height="56" viewBox="0 0 56 56" fill="none" xmlns="http://www.w3.org/2000/svg">
<path d="M18.6667 20.4476L35.6689 40.8488C36.273 41.5743 37.167 41.9956 38.1111 41.9999H38.7878C39.6383 42.004 40.4554 41.669 41.0582 41.0691C41.6611 40.4692 42 39.6537 42 38.8032V17.1965C42 16.5978 41.8271 16.0117 41.5022 15.5087C41.3709 15.3053 41.217 15.1175 41.0433 14.9488L40.9345 14.8632C40.7924 14.7295 40.6359 14.6121 40.4678 14.5132L40.2656 14.4043C40.1092 14.321 39.9451 14.2533 39.7756 14.2021L39.5656 14.1399C39.3119 14.072 39.0504 14.038 38.7878 14.0387C38.5468 14.0399 38.3067 14.0686 38.0722 14.1243C37.9944 14.1243 37.9322 14.171 37.8545 14.1943C37.6974 14.2398 37.544 14.2969 37.3956 14.3654H37.3333C36.9699 14.5445 36.6449 14.7929 36.3767 15.0965L30.9322 23.8932L37.3333 20.3465V35.5521L20.3311 15.151C19.727 14.4254 18.833 14.0041 17.8889 13.9998H17.2122C16.3617 13.9957 15.5446 14.3307 14.9418 14.9306C14.3389 15.5306 14 16.346 14 17.1965V38.8032C13.9994 39.3478 14.1387 39.8834 14.4044 40.3588C14.4044 40.421 14.4744 40.4754 14.5133 40.5376L14.5833 40.6543C14.6889 40.7986 14.8032 40.9363 14.9256 41.0665L15.0033 41.1365C15.1129 41.2408 15.2298 41.337 15.3533 41.4243L15.47 41.5021C15.622 41.6053 15.7835 41.6938 15.9522 41.7665H16.0067C16.1636 41.8275 16.3248 41.8769 16.4889 41.9143H16.6367C16.8241 41.9482 17.014 41.9664 17.2044 41.9688C17.448 41.9672 17.6906 41.9385 17.9278 41.8832C17.9978 41.8832 18.0678 41.8288 18.1378 41.8054C18.2989 41.7648 18.4553 41.7074 18.6044 41.6343H18.6667C19.0343 41.4415 19.3595 41.177 19.6233 40.8565L25.7911 32.301L18.6667 35.4121V20.4476Z" fill="#453332"/>
<rect x="0.5" y="0.5" width="55" height="55" rx="7.5" stroke="#453332"/>
</svg>
