<svg width="16" height="15" viewBox="0 0 16 15" fill="none" xmlns="http://www.w3.org/2000/svg">
<path d="M8 0L10.9622 4.27239L16 5.72968L12.7931 9.82725L12.9438 15L8 13.2601L3.05616 15L3.20687 9.82725L0 5.72968L5.03776 4.27239L8 0ZM6.59809 7.94638H5.19618C5.19617 8.66746 5.48202 9.36 5.99275 9.87623C6.50347 10.3925 7.19863 10.6915 7.92988 10.7095C8.66114 10.7275 9.37059 10.4632 9.90686 9.97275C10.4431 9.48234 10.7638 8.80476 10.8003 8.08458L10.8038 7.94638H9.40191C9.40354 8.30499 9.26369 8.65018 9.01191 8.90903C8.76014 9.16788 8.41615 9.32011 8.05261 9.33357C7.68908 9.34702 7.33448 9.22065 7.06372 8.98114C6.79296 8.74163 6.62725 8.40775 6.60159 8.05003L6.59809 7.94638Z" fill="white"/>
</svg>
