<svg width="160" height="104" viewBox="0 0 160 104" fill="none" xmlns="http://www.w3.org/2000/svg">
<path fill-rule="evenodd" clip-rule="evenodd" d="M136.569 23.4315C151.099 37.9624 159.463 57.5076 159.975 78.0001C160.003 79.1044 159.105 80 158 80H146C144.895 80 144.003 79.104 143.969 77.9999C143.461 61.7518 136.785 46.2753 125.255 34.7452C113.253 22.7428 96.9739 16 80 16C63.0262 16 46.7475 22.7428 34.7452 34.7452C23.2151 46.2753 16.5387 61.7518 16.0312 77.9999C15.9967 79.1039 15.1046 80 14 80H2C0.895431 80 -0.00261194 79.1044 0.0249707 78.0001C0.536858 57.5076 8.90056 37.9623 23.4315 23.4315C38.4344 8.42854 58.7827 0 80 0C101.217 0 121.566 8.42855 136.569 23.4315Z" fill="#E0EEFF"/>
<path d="M72.5634 77.608V75.336H79.2994V77.608H72.5634ZM80.704 77.608V75.336H87.44V77.608H80.704Z" fill="#453332"/>
<path d="M42.7205 100V92.056H43.8965V100H42.7205ZM40.0565 92.296V91.24H46.5605V92.296H40.0565ZM47.8502 100V93.592H48.7622V96.232H48.7142C48.7142 95.296 48.9182 94.612 49.3262 94.18C49.7422 93.74 50.3622 93.52 51.1862 93.52H51.4022V94.552H50.9942C50.3542 94.552 49.8622 94.724 49.5182 95.068C49.1742 95.404 49.0022 95.892 49.0022 96.532V100H47.8502ZM56.8646 100V98.08H56.6726V95.86C56.6726 95.42 56.5566 95.088 56.3246 94.864C56.1006 94.64 55.7686 94.528 55.3286 94.528C55.0806 94.528 54.8246 94.532 54.5606 94.54C54.2966 94.548 54.0446 94.556 53.8046 94.564C53.5646 94.572 53.3566 94.584 53.1806 94.6V93.592C53.3566 93.576 53.5406 93.564 53.7326 93.556C53.9326 93.54 54.1366 93.532 54.3446 93.532C54.5526 93.524 54.7526 93.52 54.9446 93.52C55.6006 93.52 56.1366 93.6 56.5526 93.76C56.9686 93.912 57.2766 94.164 57.4766 94.516C57.6766 94.868 57.7766 95.344 57.7766 95.944V100H56.8646ZM54.7646 100.168C54.2846 100.168 53.8686 100.088 53.5166 99.928C53.1726 99.76 52.9046 99.52 52.7126 99.208C52.5286 98.896 52.4366 98.52 52.4366 98.08C52.4366 97.624 52.5366 97.244 52.7366 96.94C52.9446 96.636 53.2446 96.408 53.6366 96.256C54.0286 96.096 54.5006 96.016 55.0526 96.016H56.7926V96.88H55.0046C54.5406 96.88 54.1846 96.992 53.9366 97.216C53.6886 97.44 53.5646 97.728 53.5646 98.08C53.5646 98.432 53.6886 98.716 53.9366 98.932C54.1846 99.148 54.5406 99.256 55.0046 99.256C55.2766 99.256 55.5366 99.208 55.7846 99.112C56.0326 99.008 56.2366 98.84 56.3966 98.608C56.5646 98.368 56.6566 98.04 56.6726 97.624L56.9846 98.08C56.9446 98.536 56.8326 98.92 56.6486 99.232C56.4726 99.536 56.2246 99.768 55.9046 99.928C55.5926 100.088 55.2126 100.168 54.7646 100.168ZM60.131 100V93.592H61.043V96.34H60.899C60.899 95.708 60.983 95.176 61.151 94.744C61.327 94.304 61.591 93.972 61.943 93.748C62.295 93.516 62.739 93.4 63.275 93.4H63.323C64.131 93.4 64.727 93.652 65.111 94.156C65.503 94.66 65.699 95.388 65.699 96.34V100H64.547V96.1C64.547 95.604 64.407 95.208 64.127 94.912C63.847 94.608 63.463 94.456 62.975 94.456C62.471 94.456 62.063 94.612 61.751 94.924C61.439 95.236 61.283 95.652 61.283 96.172V100H60.131ZM70.1467 100.192C69.3067 100.192 68.6547 100.012 68.1907 99.652C67.7347 99.292 67.4987 98.8 67.4827 98.176H68.5627C68.5787 98.424 68.7027 98.66 68.9347 98.884C69.1747 99.1 69.5787 99.208 70.1467 99.208C70.6587 99.208 71.0507 99.108 71.3227 98.908C71.5947 98.7 71.7307 98.448 71.7307 98.152C71.7307 97.888 71.6307 97.684 71.4307 97.54C71.2307 97.388 70.9067 97.288 70.4587 97.24L69.7627 97.168C69.1547 97.104 68.6587 96.924 68.2747 96.628C67.8907 96.324 67.6987 95.9 67.6987 95.356C67.6987 94.948 67.8027 94.6 68.0107 94.312C68.2187 94.016 68.5067 93.792 68.8747 93.64C69.2427 93.48 69.6667 93.4 70.1467 93.4C70.8667 93.4 71.4507 93.56 71.8987 93.88C72.3467 94.2 72.5787 94.676 72.5947 95.308H71.5147C71.5067 95.052 71.3867 94.836 71.1547 94.66C70.9307 94.476 70.5947 94.384 70.1467 94.384C69.6987 94.384 69.3587 94.476 69.1267 94.66C68.8947 94.844 68.7787 95.076 68.7787 95.356C68.7787 95.596 68.8587 95.788 69.0187 95.932C69.1867 96.076 69.4587 96.168 69.8347 96.208L70.5307 96.28C71.2187 96.352 71.7707 96.544 72.1867 96.856C72.6027 97.16 72.8107 97.592 72.8107 98.152C72.8107 98.552 72.6947 98.908 72.4627 99.22C72.2387 99.524 71.9267 99.764 71.5267 99.94C71.1267 100.108 70.6667 100.192 70.1467 100.192ZM78.5963 100V98.08H78.4043V95.86C78.4043 95.42 78.2883 95.088 78.0563 94.864C77.8323 94.64 77.5003 94.528 77.0603 94.528C76.8123 94.528 76.5563 94.532 76.2923 94.54C76.0283 94.548 75.7763 94.556 75.5363 94.564C75.2963 94.572 75.0883 94.584 74.9123 94.6V93.592C75.0883 93.576 75.2723 93.564 75.4643 93.556C75.6643 93.54 75.8683 93.532 76.0763 93.532C76.2843 93.524 76.4843 93.52 76.6763 93.52C77.3323 93.52 77.8683 93.6 78.2843 93.76C78.7003 93.912 79.0083 94.164 79.2083 94.516C79.4083 94.868 79.5083 95.344 79.5083 95.944V100H78.5963ZM76.4963 100.168C76.0163 100.168 75.6003 100.088 75.2483 99.928C74.9043 99.76 74.6363 99.52 74.4443 99.208C74.2603 98.896 74.1683 98.52 74.1683 98.08C74.1683 97.624 74.2683 97.244 74.4683 96.94C74.6763 96.636 74.9763 96.408 75.3683 96.256C75.7603 96.096 76.2323 96.016 76.7843 96.016H78.5243V96.88H76.7363C76.2723 96.88 75.9163 96.992 75.6683 97.216C75.4203 97.44 75.2963 97.728 75.2963 98.08C75.2963 98.432 75.4203 98.716 75.6683 98.932C75.9163 99.148 76.2723 99.256 76.7363 99.256C77.0083 99.256 77.2683 99.208 77.5163 99.112C77.7643 99.008 77.9683 98.84 78.1283 98.608C78.2963 98.368 78.3883 98.04 78.4043 97.624L78.7163 98.08C78.6763 98.536 78.5643 98.92 78.3803 99.232C78.2043 99.536 77.9563 99.768 77.6363 99.928C77.3243 100.088 76.9443 100.168 76.4963 100.168ZM84.6107 100.216C84.0587 100.216 83.5787 100.12 83.1707 99.928C82.7707 99.736 82.4387 99.48 82.1747 99.16C81.9107 98.832 81.7107 98.472 81.5747 98.08C81.4467 97.688 81.3827 97.296 81.3827 96.904V96.688C81.3827 96.28 81.4467 95.88 81.5747 95.488C81.7107 95.096 81.9107 94.744 82.1747 94.432C82.4467 94.112 82.7827 93.856 83.1827 93.664C83.5827 93.472 84.0507 93.376 84.5867 93.376C85.1227 93.376 85.6027 93.476 86.0267 93.676C86.4587 93.876 86.8027 94.16 87.0587 94.528C87.3227 94.888 87.4707 95.316 87.5027 95.812H86.3987C86.3427 95.412 86.1587 95.08 85.8467 94.816C85.5347 94.544 85.1147 94.408 84.5867 94.408C84.1307 94.408 83.7507 94.512 83.4467 94.72C83.1427 94.928 82.9147 95.212 82.7627 95.572C82.6107 95.932 82.5347 96.34 82.5347 96.796C82.5347 97.236 82.6107 97.64 82.7627 98.008C82.9147 98.368 83.1427 98.656 83.4467 98.872C83.7587 99.08 84.1467 99.184 84.6107 99.184C84.9707 99.184 85.2827 99.12 85.5467 98.992C85.8107 98.864 86.0227 98.692 86.1827 98.476C86.3427 98.26 86.4387 98.016 86.4707 97.744H87.5747C87.5507 98.248 87.4027 98.684 87.1307 99.052C86.8667 99.42 86.5147 99.708 86.0747 99.916C85.6427 100.116 85.1547 100.216 84.6107 100.216ZM91.876 100.072C91.396 100.072 90.98 100.004 90.628 99.868C90.284 99.732 90.016 99.5 89.824 99.172C89.64 98.836 89.548 98.384 89.548 97.816V91.648H90.652V97.96C90.652 98.304 90.744 98.572 90.928 98.764C91.12 98.948 91.388 99.04 91.732 99.04H92.86V100.072H91.876ZM88.444 94.456V93.592H92.86V94.456H88.444ZM95.0414 100V93.592H96.1934V100H95.0414ZM94.0574 94.504V93.592H96.1934V94.504H94.0574ZM95.3654 92.56C95.1094 92.56 94.9174 92.492 94.7894 92.356C94.6694 92.22 94.6094 92.048 94.6094 91.84C94.6094 91.632 94.6694 91.46 94.7894 91.324C94.9174 91.188 95.1094 91.12 95.3654 91.12C95.6214 91.12 95.8094 91.188 95.9294 91.324C96.0574 91.46 96.1214 91.632 96.1214 91.84C96.1214 92.048 96.0574 92.22 95.9294 92.356C95.8094 92.492 95.6214 92.56 95.3654 92.56ZM101.613 100.216C101.053 100.216 100.561 100.12 100.137 99.928C99.7128 99.736 99.3528 99.484 99.0568 99.172C98.7688 98.852 98.5488 98.496 98.3968 98.104C98.2528 97.712 98.1808 97.312 98.1808 96.904V96.688C98.1808 96.28 98.2568 95.88 98.4088 95.488C98.5608 95.088 98.7848 94.732 99.0808 94.42C99.3768 94.1 99.7368 93.848 100.161 93.664C100.585 93.472 101.069 93.376 101.613 93.376C102.157 93.376 102.641 93.472 103.065 93.664C103.489 93.848 103.849 94.1 104.145 94.42C104.441 94.732 104.665 95.088 104.817 95.488C104.969 95.88 105.045 96.28 105.045 96.688V96.904C105.045 97.312 104.969 97.712 104.817 98.104C104.673 98.496 104.453 98.852 104.157 99.172C103.869 99.484 103.513 99.736 103.089 99.928C102.665 100.12 102.173 100.216 101.613 100.216ZM101.613 99.184C102.093 99.184 102.501 99.08 102.837 98.872C103.181 98.656 103.441 98.368 103.617 98.008C103.801 97.648 103.893 97.244 103.893 96.796C103.893 96.34 103.801 95.932 103.617 95.572C103.433 95.212 103.169 94.928 102.825 94.72C102.489 94.512 102.085 94.408 101.613 94.408C101.149 94.408 100.745 94.512 100.401 94.72C100.057 94.928 99.7928 95.212 99.6088 95.572C99.4248 95.932 99.3328 96.34 99.3328 96.796C99.3328 97.244 99.4208 97.648 99.5968 98.008C99.7808 98.368 100.041 98.656 100.377 98.872C100.721 99.08 101.133 99.184 101.613 99.184ZM107.01 100V93.592H107.922V96.34H107.778C107.778 95.708 107.862 95.176 108.03 94.744C108.206 94.304 108.47 93.972 108.822 93.748C109.174 93.516 109.618 93.4 110.154 93.4H110.202C111.01 93.4 111.606 93.652 111.99 94.156C112.382 94.66 112.578 95.388 112.578 96.34V100H111.426V96.1C111.426 95.604 111.286 95.208 111.006 94.912C110.726 94.608 110.342 94.456 109.854 94.456C109.35 94.456 108.942 94.612 108.63 94.924C108.318 95.236 108.162 95.652 108.162 96.172V100H107.01ZM117.026 100.192C116.186 100.192 115.534 100.012 115.07 99.652C114.614 99.292 114.378 98.8 114.362 98.176H115.442C115.458 98.424 115.582 98.66 115.814 98.884C116.054 99.1 116.458 99.208 117.026 99.208C117.538 99.208 117.93 99.108 118.202 98.908C118.474 98.7 118.61 98.448 118.61 98.152C118.61 97.888 118.51 97.684 118.31 97.54C118.11 97.388 117.786 97.288 117.338 97.24L116.642 97.168C116.034 97.104 115.538 96.924 115.154 96.628C114.77 96.324 114.578 95.9 114.578 95.356C114.578 94.948 114.682 94.6 114.89 94.312C115.098 94.016 115.386 93.792 115.754 93.64C116.122 93.48 116.546 93.4 117.026 93.4C117.746 93.4 118.33 93.56 118.778 93.88C119.226 94.2 119.458 94.676 119.474 95.308H118.394C118.386 95.052 118.266 94.836 118.034 94.66C117.81 94.476 117.474 94.384 117.026 94.384C116.578 94.384 116.238 94.476 116.006 94.66C115.774 94.844 115.658 95.076 115.658 95.356C115.658 95.596 115.738 95.788 115.898 95.932C116.066 96.076 116.338 96.168 116.714 96.208L117.41 96.28C118.098 96.352 118.65 96.544 119.066 96.856C119.482 97.16 119.69 97.592 119.69 98.152C119.69 98.552 119.574 98.908 119.342 99.22C119.118 99.524 118.806 99.764 118.406 99.94C118.006 100.108 117.546 100.192 117.026 100.192Z" fill="#453332"/>
<path d="M64.4263 60.216C63.7623 60.216 63.1943 60.104 62.7223 59.88C62.2503 59.648 61.8663 59.336 61.5703 58.944C61.2823 58.552 61.0703 58.1 60.9343 57.588C60.7983 57.068 60.7303 56.52 60.7303 55.944V55.284C60.7303 54.484 60.8583 53.76 61.1143 53.112C61.3783 52.464 61.7823 51.948 62.3263 51.564C62.8783 51.18 63.5783 50.988 64.4263 50.988C65.2823 50.988 65.9783 51.18 66.5143 51.564C67.0583 51.948 67.4623 52.464 67.7263 53.112C67.9903 53.76 68.1223 54.484 68.1223 55.284V55.944C68.1223 56.52 68.0543 57.068 67.9183 57.588C67.7823 58.1 67.5663 58.552 67.2703 58.944C66.9823 59.336 66.6023 59.648 66.1303 59.88C65.6663 60.104 65.0983 60.216 64.4263 60.216ZM64.4263 58.908C65.2023 58.908 65.7703 58.648 66.1303 58.128C66.4983 57.6 66.6823 56.768 66.6823 55.632C66.6823 54.44 66.4943 53.588 66.1183 53.076C65.7503 52.556 65.1863 52.296 64.4263 52.296C63.6663 52.296 63.0983 52.556 62.7223 53.076C62.3543 53.588 62.1703 54.432 62.1703 55.608C62.1703 56.752 62.3543 57.588 62.7223 58.116C63.0903 58.644 63.6583 58.908 64.4263 58.908ZM73.6663 60.216C73.0023 60.216 72.4343 60.104 71.9623 59.88C71.4903 59.648 71.1063 59.336 70.8103 58.944C70.5223 58.552 70.3103 58.1 70.1743 57.588C70.0383 57.068 69.9703 56.52 69.9703 55.944V55.284C69.9703 54.484 70.0983 53.76 70.3543 53.112C70.6183 52.464 71.0223 51.948 71.5663 51.564C72.1183 51.18 72.8183 50.988 73.6663 50.988C74.5223 50.988 75.2183 51.18 75.7543 51.564C76.2983 51.948 76.7023 52.464 76.9663 53.112C77.2303 53.76 77.3623 54.484 77.3623 55.284V55.944C77.3623 56.52 77.2943 57.068 77.1583 57.588C77.0223 58.1 76.8063 58.552 76.5103 58.944C76.2223 59.336 75.8423 59.648 75.3703 59.88C74.9063 60.104 74.3383 60.216 73.6663 60.216ZM73.6663 58.908C74.4423 58.908 75.0103 58.648 75.3703 58.128C75.7383 57.6 75.9223 56.768 75.9223 55.632C75.9223 54.44 75.7343 53.588 75.3583 53.076C74.9903 52.556 74.4263 52.296 73.6663 52.296C72.9063 52.296 72.3383 52.556 71.9623 53.076C71.5943 53.588 71.4103 54.432 71.4103 55.608C71.4103 56.752 71.5943 57.588 71.9623 58.116C72.3303 58.644 72.8983 58.908 73.6663 58.908ZM79.1863 60V58.308H80.8183V60H79.1863ZM79.1863 55.704V54.012H80.8183V55.704H79.1863ZM86.3337 60.216C85.6697 60.216 85.1017 60.104 84.6297 59.88C84.1577 59.648 83.7737 59.336 83.4777 58.944C83.1897 58.552 82.9777 58.1 82.8417 57.588C82.7057 57.068 82.6377 56.52 82.6377 55.944V55.284C82.6377 54.484 82.7657 53.76 83.0217 53.112C83.2857 52.464 83.6897 51.948 84.2337 51.564C84.7857 51.18 85.4857 50.988 86.3337 50.988C87.1897 50.988 87.8857 51.18 88.4217 51.564C88.9657 51.948 89.3697 52.464 89.6337 53.112C89.8977 53.76 90.0297 54.484 90.0297 55.284V55.944C90.0297 56.52 89.9617 57.068 89.8257 57.588C89.6897 58.1 89.4737 58.552 89.1777 58.944C88.8897 59.336 88.5097 59.648 88.0377 59.88C87.5737 60.104 87.0057 60.216 86.3337 60.216ZM86.3337 58.908C87.1097 58.908 87.6777 58.648 88.0377 58.128C88.4057 57.6 88.5897 56.768 88.5897 55.632C88.5897 54.44 88.4017 53.588 88.0257 53.076C87.6577 52.556 87.0937 52.296 86.3337 52.296C85.5737 52.296 85.0057 52.556 84.6297 53.076C84.2617 53.588 84.0777 54.432 84.0777 55.608C84.0777 56.752 84.2617 57.588 84.6297 58.116C84.9977 58.644 85.5657 58.908 86.3337 58.908ZM95.5737 60.216C94.9097 60.216 94.3417 60.104 93.8697 59.88C93.3977 59.648 93.0137 59.336 92.7177 58.944C92.4297 58.552 92.2177 58.1 92.0817 57.588C91.9457 57.068 91.8777 56.52 91.8777 55.944V55.284C91.8777 54.484 92.0057 53.76 92.2617 53.112C92.5257 52.464 92.9297 51.948 93.4737 51.564C94.0257 51.18 94.7257 50.988 95.5737 50.988C96.4297 50.988 97.1257 51.18 97.6617 51.564C98.2057 51.948 98.6097 52.464 98.8737 53.112C99.1377 53.76 99.2697 54.484 99.2697 55.284V55.944C99.2697 56.52 99.2017 57.068 99.0657 57.588C98.9297 58.1 98.7137 58.552 98.4177 58.944C98.1297 59.336 97.7497 59.648 97.2777 59.88C96.8137 60.104 96.2457 60.216 95.5737 60.216ZM95.5737 58.908C96.3497 58.908 96.9177 58.648 97.2777 58.128C97.6457 57.6 97.8297 56.768 97.8297 55.632C97.8297 54.44 97.6417 53.588 97.2657 53.076C96.8977 52.556 96.3337 52.296 95.5737 52.296C94.8137 52.296 94.2457 52.556 93.8697 53.076C93.5017 53.588 93.3177 54.432 93.3177 55.608C93.3177 56.752 93.5017 57.588 93.8697 58.116C94.2377 58.644 94.8057 58.908 95.5737 58.908Z" fill="#A3A3A3"/>
</svg>
