<svg width="160" height="80" viewBox="0 0 160 80" fill="none" xmlns="http://www.w3.org/2000/svg">
<path fill-rule="evenodd" clip-rule="evenodd" d="M136.569 23.4315C151.099 37.9624 159.463 57.5076 159.975 78.0001C160.003 79.1044 159.105 80 158 80H146C144.895 80 144.003 79.104 143.969 77.9999C143.461 61.7518 136.785 46.2753 125.255 34.7452C113.253 22.7428 96.9739 16 80 16C63.0262 16 46.7475 22.7428 34.7452 34.7452C23.2151 46.2753 16.5387 61.7518 16.0312 77.9999C15.9967 79.1039 15.1046 80 14 80H2C0.895431 80 -0.00261194 79.1044 0.0249707 78.0001C0.536858 57.5076 8.90056 37.9623 23.4315 23.4315C38.4344 8.42854 58.7827 0 80 0C101.217 0 121.566 8.42855 136.569 23.4315Z" fill="#E0EEFF"/>
</svg>
