<svg width="40" height="40" viewBox="0 0 40 40" fill="none" xmlns="http://www.w3.org/2000/svg">
<rect y="1.90735e-06" width="40" height="40" rx="20" fill="#FDEFD2"/>
<path d="M20 30C14.477 30 10 25.523 10 20C10 14.477 14.477 10 20 10C25.523 10 30 14.477 30 20C30 25.523 25.523 30 20 30ZM16 21C16 22.0609 16.4214 23.0783 17.1716 23.8284C17.9217 24.5786 18.9391 25 20 25C21.0609 25 22.0783 24.5786 22.8284 23.8284C23.5786 23.0783 24 22.0609 24 21H16ZM16 19C16.3978 19 16.7794 18.842 17.0607 18.5607C17.342 18.2794 17.5 17.8978 17.5 17.5C17.5 17.1022 17.342 16.7206 17.0607 16.4393C16.7794 16.158 16.3978 16 16 16C15.6022 16 15.2206 16.158 14.9393 16.4393C14.658 16.7206 14.5 17.1022 14.5 17.5C14.5 17.8978 14.658 18.2794 14.9393 18.5607C15.2206 18.842 15.6022 19 16 19ZM24 19C24.3978 19 24.7794 18.842 25.0607 18.5607C25.342 18.2794 25.5 17.8978 25.5 17.5C25.5 17.1022 25.342 16.7206 25.0607 16.4393C24.7794 16.158 24.3978 16 24 16C23.6022 16 23.2206 16.158 22.9393 16.4393C22.658 16.7206 22.5 17.1022 22.5 17.5C22.5 17.8978 22.658 18.2794 22.9393 18.5607C23.2206 18.842 23.6022 19 24 19Z" fill="#EBBB56"/>
</svg>
