<svg width="40" height="40" viewBox="0 0 40 40" fill="none" xmlns="http://www.w3.org/2000/svg">
<rect width="40" height="40" rx="20" fill="#D7F6B1"/>
<path d="M25 21C26.0609 21 27.0783 21.4214 27.8284 22.1716C28.5786 22.9217 29 23.9391 29 25C29 26.0609 28.5786 27.0783 27.8284 27.8284C27.0783 28.5786 26.0609 29 25 29C22.858 29 21 27.21 21 25H19C18.9996 25.9704 18.6465 26.9077 18.0063 27.637C17.3662 28.3664 16.4827 28.8382 15.5205 28.9644C14.5583 29.0907 13.583 28.8629 12.7764 28.3234C11.9697 27.7839 11.3866 26.9696 11.1359 26.0321C10.8851 25.0946 10.9837 24.0979 11.4133 23.2278C11.8429 22.3576 12.5741 21.6732 13.4709 21.3023C14.3676 20.9313 15.3686 20.8989 16.2874 21.2113C17.2062 21.5236 17.9802 22.1594 18.465 23H21.535C21.886 22.3917 22.3911 21.8865 22.9993 21.5354C23.6076 21.1843 24.2977 20.9996 25 21ZM10 20V18H12V15C12 13.9391 12.4214 12.9217 13.1716 12.1716C13.9217 11.4214 14.9391 11 16 11H24C25.0609 11 26.0783 11.4214 26.8284 12.1716C27.5786 12.9217 28 13.9391 28 15V18H30V20H10Z" fill="#90DE2E"/>
</svg>
