<svg width="7" height="10" viewBox="0 0 7 10" fill="none" xmlns="http://www.w3.org/2000/svg">
<path d="M0.457447 0.0513965L6.84951 4.67457C6.89531 4.70781 6.93331 4.75534 6.95971 4.81244C6.98611 4.86953 7 4.93419 7 5C7 5.06581 6.98611 5.13047 6.95971 5.18756C6.93331 5.24465 6.89531 5.29218 6.84951 5.32543L0.457447 9.9486C0.411136 9.98211 0.358502 9.99984 0.304882 10C0.251262 10.0002 0.198561 9.98274 0.15212 9.94951C0.105679 9.91628 0.0671489 9.86842 0.0404348 9.81078C0.0137208 9.75314 -0.000227846 9.68776 2.81497e-06 9.62128V0.377205C-1.30459e-05 0.310854 0.0140921 0.245673 0.0408937 0.188242C0.0676954 0.130811 0.106245 0.0831648 0.152649 0.0501137C0.199054 0.0170626 0.251671 -0.000223068 0.305187 2.17341e-06C0.358704 0.000227415 0.411225 0.0179555 0.457447 0.0513965Z" fill="white"/>
</svg>
