<svg width="48" height="48" viewBox="0 0 48 48" fill="none" xmlns="http://www.w3.org/2000/svg">
<rect x="0.5" y="0.5" width="47" height="47" rx="23.5" fill="white"/>
<path d="M24 34C18.477 34 14 29.523 14 24C14 18.477 18.477 14 24 14C29.523 14 34 18.477 34 24C34 29.523 29.523 34 24 34ZM20 25C20 26.0609 20.4214 27.0783 21.1716 27.8284C21.9217 28.5786 22.9391 29 24 29C25.0609 29 26.0783 28.5786 26.8284 27.8284C27.5786 27.0783 28 26.0609 28 25H20ZM20 23C20.3978 23 20.7794 22.842 21.0607 22.5607C21.342 22.2794 21.5 21.8978 21.5 21.5C21.5 21.1022 21.342 20.7206 21.0607 20.4393C20.7794 20.158 20.3978 20 20 20C19.6022 20 19.2206 20.158 18.9393 20.4393C18.658 20.7206 18.5 21.1022 18.5 21.5C18.5 21.8978 18.658 22.2794 18.9393 22.5607C19.2206 22.842 19.6022 23 20 23ZM28 23C28.3978 23 28.7794 22.842 29.0607 22.5607C29.342 22.2794 29.5 21.8978 29.5 21.5C29.5 21.1022 29.342 20.7206 29.0607 20.4393C28.7794 20.158 28.3978 20 28 20C27.6022 20 27.2206 20.158 26.9393 20.4393C26.658 20.7206 26.5 21.1022 26.5 21.5C26.5 21.8978 26.658 22.2794 26.9393 22.5607C27.2206 22.842 27.6022 23 28 23Z" fill="#EBBB56"/>
<rect x="0.5" y="0.5" width="47" height="47" rx="23.5" stroke="#EBBB56"/>
</svg>
