<svg width="48" height="48" viewBox="0 0 48 48" fill="none" xmlns="http://www.w3.org/2000/svg">
<rect x="0.5" y="0.5" width="47" height="47" rx="23.5" fill="white"/>
<path d="M29 25C30.0609 25 31.0783 25.4214 31.8284 26.1716C32.5786 26.9217 33 27.9391 33 29C33 30.0609 32.5786 31.0783 31.8284 31.8284C31.0783 32.5786 30.0609 33 29 33C26.858 33 25 31.21 25 29H23C22.9996 29.9704 22.6465 30.9077 22.0063 31.637C21.3662 32.3664 20.4827 32.8382 19.5205 32.9644C18.5583 33.0907 17.583 32.8629 16.7764 32.3234C15.9697 31.7839 15.3866 30.9696 15.1359 30.0321C14.8851 29.0946 14.9837 28.0979 15.4133 27.2278C15.8429 26.3576 16.5741 25.6732 17.4709 25.3023C18.3676 24.9313 19.3686 24.8989 20.2874 25.2113C21.2062 25.5236 21.9802 26.1594 22.465 27H25.535C25.886 26.3917 26.3911 25.8865 26.9993 25.5354C27.6076 25.1843 28.2977 24.9996 29 25ZM14 24V22H16V19C16 17.9391 16.4214 16.9217 17.1716 16.1716C17.9217 15.4214 18.9391 15 20 15H28C29.0609 15 30.0783 15.4214 30.8284 16.1716C31.5786 16.9217 32 17.9391 32 19V22H34V24H14Z" fill="#90DE2E"/>
<rect x="0.5" y="0.5" width="47" height="47" rx="23.5" stroke="#90DE2E"/>
</svg>
