<svg width="48" height="48" viewBox="0 0 48 48" fill="none" xmlns="http://www.w3.org/2000/svg">
<rect x="0.5" y="0.5" width="47" height="47" rx="23.5" fill="white"/>
<path d="M14.8 17.2L19 20L23.186 14.14C23.2785 14.0104 23.4006 13.9047 23.5422 13.8318C23.6838 13.7589 23.8408 13.7209 24 13.7209C24.1593 13.7209 24.3162 13.7589 24.4578 13.8318C24.5994 13.9047 24.7215 14.0104 24.814 14.14L29 20L33.2 17.2C33.359 17.0943 33.5449 17.0362 33.7358 17.0327C33.9266 17.0293 34.1145 17.0805 34.2772 17.1804C34.4399 17.2803 34.5706 17.4247 34.6539 17.5965C34.7371 17.7684 34.7694 17.9604 34.747 18.15L33.104 32.117C33.0753 32.3603 32.9584 32.5845 32.7754 32.7473C32.5923 32.91 32.3559 33 32.111 33H15.889C15.6441 33 15.4077 32.91 15.2246 32.7473C15.0416 32.5845 14.9247 32.3603 14.896 32.117L13.253 18.149C13.2308 17.9595 13.2633 17.7676 13.3466 17.5959C13.43 17.4243 13.5607 17.28 13.7233 17.1803C13.886 17.0805 14.0738 17.0293 14.2645 17.0328C14.4553 17.0363 14.6411 17.0943 14.8 17.2ZM24 27C24.5304 27 25.0391 26.7893 25.4142 26.4142C25.7893 26.0391 26 25.5304 26 25C26 24.4696 25.7893 23.9609 25.4142 23.5858C25.0391 23.2107 24.5304 23 24 23C23.4696 23 22.9609 23.2107 22.5858 23.5858C22.2107 23.9609 22 24.4696 22 25C22 25.5304 22.2107 26.0391 22.5858 26.4142C22.9609 26.7893 23.4696 27 24 27Z" fill="#0071F6"/>
<rect x="0.5" y="0.5" width="47" height="47" rx="23.5" stroke="#0071F6"/>
</svg>
