<svg width="48" height="48" viewBox="0 0 48 48" fill="none" xmlns="http://www.w3.org/2000/svg">
<rect width="48" height="48" rx="8" fill="#D7F6B1"/>
<path d="M16 18.414L12.757 15.172L14.172 13.757L17.414 17H32.656C32.8119 17 32.9656 17.0364 33.1049 17.1064C33.2442 17.1763 33.3652 17.2779 33.4582 17.4029C33.5513 17.5279 33.6139 17.673 33.6409 17.8265C33.6679 17.98 33.6587 18.1377 33.614 18.287L31.214 26.287C31.1523 26.4931 31.0257 26.6737 30.8531 26.8022C30.6805 26.9306 30.4711 27 30.256 27H18V29H29V31H17C16.7348 31 16.4804 30.8946 16.2929 30.7071C16.1054 30.5196 16 30.2652 16 30V18.414ZM17.5 35C17.1022 35 16.7206 34.842 16.4393 34.5606C16.158 34.2793 16 33.8978 16 33.5C16 33.1022 16.158 32.7206 16.4393 32.4393C16.7206 32.158 17.1022 32 17.5 32C17.8978 32 18.2794 32.158 18.5607 32.4393C18.842 32.7206 19 33.1022 19 33.5C19 33.8978 18.842 34.2793 18.5607 34.5606C18.2794 34.842 17.8978 35 17.5 35ZM29.5 35C29.1022 35 28.7206 34.842 28.4393 34.5606C28.158 34.2793 28 33.8978 28 33.5C28 33.1022 28.158 32.7206 28.4393 32.4393C28.7206 32.158 29.1022 32 29.5 32C29.8978 32 30.2794 32.158 30.5607 32.4393C30.842 32.7206 31 33.1022 31 33.5C31 33.8978 30.842 34.2793 30.5607 34.5606C30.2794 34.842 29.8978 35 29.5 35Z" fill="#90DE2E"/>
</svg>
